<svg xmlns="http://www.w3.org/2000/svg" version="1.1" xmlns:xlink="http://www.w3.org/1999/xlink" xmlns:svgjs="http://svgjs.com/svgjs" width="12" height="12" x="0" y="0" viewBox="0 0 391.837 391.837" style="enable-background:new 0 0 512 512" xml:space="preserve"><g>
<g>
	<g>
		<polygon style="" points="112.327,389.225 0,389.225 21.42,256.523 370.416,256.523 391.837,389.225 279.51,389.225
			195.918,389.225 		" fill="#00EFD1" data-original="#00efd1"></polygon>
		<path style="" d="M370.416,198.531v58.514H21.42v-58.514c0-17.601,14.268-31.869,31.869-31.869h105.535V39.706
			c0-20.486,16.607-37.094,37.094-37.094c9.84-0.061,19.277,3.902,26.122,10.971c6.97,6.913,10.915,16.306,10.971,26.122v126.955
			h106.057C356.466,166.947,370.419,181.132,370.416,198.531z" fill="#00ACEA" data-original="#00acea"></path>
	</g>
	<g>
		<path style="" d="M195.918,384c-5.771,0-10.449-4.678-10.449-10.449v-78.367c0-5.771,4.678-10.449,10.449-10.449
			c5.771,0,10.449,4.678,10.449,10.449v78.367C206.367,379.322,201.689,384,195.918,384z" fill="#00CEB4" data-original="#00ceb4"></path>
		<path style="" d="M279.51,384c-5.771,0-10.449-4.678-10.449-10.449v-57.469c0-5.771,4.678-10.449,10.449-10.449
			s10.449,4.678,10.449,10.449v57.469C289.959,379.322,285.281,384,279.51,384z" fill="#00CEB4" data-original="#00ceb4"></path>
		<path style="" d="M112.327,384c-5.771,0-10.449-4.678-10.449-10.449v-57.469c0-5.771,4.678-10.449,10.449-10.449
			c5.771,0,10.449,4.678,10.449,10.449v57.469C122.776,379.322,118.097,384,112.327,384z" fill="#00CEB4" data-original="#00ceb4"></path>
	</g>
</g>
<g>
</g>
<g>
</g>
<g>
</g>
<g>
</g>
<g>
</g>
<g>
</g>
<g>
</g>
<g>
</g>
<g>
</g>
<g>
</g>
<g>
</g>
<g>
</g>
<g>
</g>
<g>
</g>
<g>
</g>
</g></svg>