<svg xmlns="http://www.w3.org/2000/svg" version="1.1" xmlns:xlink="http://www.w3.org/1999/xlink" xmlns:svgjs="http://svgjs.com/svgjs" width="16" height="16" x="0" y="0" viewBox="0 0 480 480" style="enable-background:new 0 0 512 512" xml:space="preserve" class=""><g><path d="m50.144531 284.023438 49.574219 180.25 272.433594-157.289063v-.007813l-131.304688-133.046874-24.847656 2.070312-152 88zm0 0" fill="#FFE352" data-original="#ffe352" class=""></path><g fill="#FFB236"><path d="m134.742188 203.714844 56 88.003906-13.496094 8.589844-56.003906-88zm0 0" fill="#FFB236" data-original="#ffb236"></path><path d="m174.785156 171.761719 40 64-13.5625 8.476562-40-64.003906zm0 0" fill="#FFB236" data-original="#ffb236"></path><path d="m86.785156 227.761719 40 64-13.5625 8.476562-40-64.003906zm0 0" fill="#FFB236" data-original="#ffb236"></path></g><path d="m218.878906 147.273438c-4.878906-5.921876-13.277344-7.441407-20-3.601563l-36.078125 20.800781c-7.519531 4.398438-17.199219 1.839844-21.519531-5.679687l-82.5625-143.042969c-8.71875-15.039062-27.917969-20.238281-42.957031-11.519531-10.082031 5.761719-15.761719 16.402343-15.761719 27.28125 0 5.359375 1.359375 10.71875 4.238281 15.679687l82.5625 143.039063c4.320313 7.519531 1.757813 17.121093-5.761719 21.441406l-36.160156 20.878906c-6.640625 3.839844-9.519531 11.921875-6.878906 19.121094l12.160156 32.320313 190.71875-110.082032zm-186.878906-99.28125c-8.800781 0-16-7.199219-16-16 0-8.800782 7.199219-16 16-16s16 7.199218 16 16c0 8.800781-7.199219 16-16 16zm0 0" fill="#6E83B7" data-original="#6e83b7"></path><path d="m480 88c0-6.625-2.6875-12.625-7.03125-16.96875 0-6.144531-2.34375-12.289062-7.03125-16.96875-4.691406-4.6875-10.832031-7.03125-16.96875-7.03125-4.34375-4.34375-10.34375-7.03125-16.96875-7.03125s-12.625 2.6875-16.96875 7.03125c-6.144531 0-12.289062 2.34375-16.96875 7.03125s-7.03125 10.832031-7.03125 16.96875c-4.34375 4.34375-7.03125 10.34375-7.03125 16.96875s2.6875 12.625 7.03125 16.96875c0 6.144531 2.34375 12.277344 7.03125 16.96875 4.691406 4.6875 10.832031 7.03125 16.96875 7.03125 4.34375 4.34375 10.34375 7.03125 16.96875 7.03125s12.625-2.6875 16.96875-7.03125c6.144531 0 12.277344-2.34375 16.96875-7.03125 4.6875-4.691406 7.03125-10.832031 7.03125-16.96875 4.34375-4.34375 7.03125-10.34375 7.03125-16.96875zm0 0" fill="#FFB0AA" data-original="#ffb0aa" class=""></path><path d="m448 88c0 8.835938-7.164062 16-16 16s-16-7.164062-16-16 7.164062-16 16-16 16 7.164062 16 16zm0 0" fill="#FFE352" data-original="#ffe352" class=""></path><path d="m448 272c0-3.3125-1.34375-6.3125-3.511719-8.488281 0-3.070313-1.167969-6.144531-3.511719-8.488281s-5.417968-3.511719-8.488281-3.511719c-2.175781-2.167969-5.175781-3.511719-8.488281-3.511719s-6.3125 1.34375-8.488281 3.511719c-3.070313 0-6.144531 1.167969-8.488281 3.511719s-3.511719 5.417968-3.511719 8.488281c-2.167969 2.175781-3.511719 5.175781-3.511719 8.488281s1.34375 6.3125 3.511719 8.488281c0 3.070313 1.167969 6.144531 3.511719 8.488281s5.417968 3.511719 8.488281 3.511719c2.175781 2.167969 5.175781 3.511719 8.488281 3.511719s6.3125-1.34375 8.488281-3.511719c3.070313 0 6.144531-1.167969 8.488281-3.511719s3.511719-5.417968 3.511719-8.488281c2.167969-2.175781 3.511719-5.175781 3.511719-8.488281zm0 0" fill="#FFB0AA" data-original="#ffb0aa" class=""></path><path d="m432 272c0 4.417969-3.582031 8-8 8s-8-3.582031-8-8 3.582031-8 8-8 8 3.582031 8 8zm0 0" fill="#FFE352" data-original="#ffe352" class=""></path><path d="m376 184c0-4.417969-1.792969-8.417969-4.6875-11.3125 0-4.097656-1.558594-8.191406-4.6875-11.3125-3.128906-3.128906-7.21875-4.6875-11.3125-4.6875-2.898438-2.894531-6.898438-4.6875-11.3125-4.6875s-8.414062 1.792969-11.3125 4.6875c-4.09375 0-8.191406 1.558594-11.3125 4.6875-3.128906 3.128906-4.6875 7.214844-4.6875 11.3125-2.894531 2.894531-4.6875 6.894531-4.6875 11.3125 0 4.414062 1.792969 8.414062 4.6875 11.3125 0 4.09375 1.558594 8.191406 4.6875 11.3125 3.128906 3.125 7.21875 4.6875 11.3125 4.6875 2.898438 2.894531 6.898438 4.6875 11.3125 4.6875s8.414062-1.792969 11.3125-4.6875c4.09375 0 8.191406-1.5625 11.3125-4.6875 3.128906-3.128906 4.6875-7.21875 4.6875-11.3125 2.894531-2.898438 4.6875-6.898438 4.6875-11.3125zm0 0" fill="#FFB0AA" data-original="#ffb0aa" class=""></path><path d="m352 184c0 4.417969-3.582031 8-8 8s-8-3.582031-8-8 3.582031-8 8-8 8 3.582031 8 8zm0 0" fill="#FFE352" data-original="#ffe352" class=""></path><path d="m175.902344 480s147-21.664062 176-40c0-26.511719 21.488281-48 48-48 0-17.671875 14.328125-32 32-32s32 14.328125 32 32c0 0 7.59375 88-111.902344 88-119.503906 0-176.097656 0-176.097656 0zm0 0" fill="#EDEFF1" data-original="#edeff1"></path></g></svg>