<svg xmlns="http://www.w3.org/2000/svg" version="1.1" xmlns:xlink="http://www.w3.org/1999/xlink" xmlns:svgjs="http://svgjs.com/svgjs" width="20" height="20" x="0" y="0" viewBox="0 0 24 24" style="enable-background:new 0 0 512 512" xml:space="preserve" class=""><defs><linearGradient id="a" x1="11" x2="11" y1="2" y2="22" gradientUnits="userSpaceOnUse"><stop offset="0" stop-color="#0d84f1"></stop><stop offset="1" stop-color="#875be3"></stop></linearGradient></defs><g><linearGradient id="a" x1="11" x2="11" y1="2" y2="22" gradientUnits="userSpaceOnUse"><stop offset="0" stop-color="#0d84f1"></stop><stop offset="1" stop-color="#875be3"></stop></linearGradient><path fill="url(&quot;#a&quot;)" fill-rule="evenodd" d="M4.929 17.657a1 1 0 0 0 0 1.414c3.905 3.905 10.237 3.905 14.142 0 3.905-3.905 3.905-10.237 0-14.142-3.905-3.905-10.237-3.905-14.142 0a9.959 9.959 0 0 0-2.824 5.622.519.519 0 0 1-.508.449H1a1 1 0 0 0-.707 1.707l2 2 .002.002a.997.997 0 0 0 1.413-.003l2-1.999A1 1 0 0 0 5 11h-.371a.474.474 0 0 1-.477-.56 8 8 0 1 1 2.19 7.216 1 1 0 0 0-1.413 0zM10 8a1 1 0 1 1 2 0v3.5a.5.5 0 0 0 .5.5H16a1 1 0 1 1 0 2h-5a1 1 0 0 1-1-1z" clip-rule="evenodd" data-original="url(#a)" class=""></path></g></svg>