<svg width="39" height="16" xmlns="http://www.w3.org/2000/svg">
 <!-- Created with Method Draw - http://github.com/duopixel/Method-Draw/ -->

 <g>
  <title>Layer 1</title>
  <g id="svg_1">
   <rect fill="none" id="canvas_background" height="18" width="41" y="-1" x="-1"/>
   <g display="none" overflow="visible" y="0" x="0" height="100%" width="100%" id="canvasGrid">
    <rect fill="url(#gridpattern)" stroke-width="0" y="0" x="0" height="100%" width="100%" id="svg_2"/>
   </g>
  </g>
  <g stroke="null" id="svg_3">
   <rect stroke="0E932E" fill="#59a869" stroke-width="1.5" stroke-opacity="null" x="0" y="0" width="22" height="16" id="svg_4"/>
   <text stroke="0E932E" fill="#2c2c2c" stroke-width="0" stroke-opacity="null" x="0.21094" y="10.87987" id="svg_6" font-size="8" font-family="Arvo, sans-serif" text-anchor="start" xml:space="preserve" font-weight="bold">POST</text>
  </g>
  <g stroke="null" id="svg_8" fill-rule="evenodd" fill="none">
   <path stroke="null" id="svg_5" d="m37,8c0,3.866 -3.134,7 -7,7c-3.866,0 -7,-3.134 -7,-7c0,-3.866 3.134,-7 7,-7c3.866,0 7,3.134 7,7" fill-opacity="0.6" fill="#62B543"/>
   <polygon stroke="null" id="svg_7" opacity="0.7" points="30.600000381469727,10 30.600000381469727,6 32,6 32,5 28,5 28,6 29.399999618530273,6 29.399999618530273,10 28,10.006999969482422 28,11 32,11 32,10 " fill-rule="nonzero" fill="#231F20"/>
  </g>
 </g>
</svg>