<svg xmlns="http://www.w3.org/2000/svg" version="1.1" xmlns:xlink="http://www.w3.org/1999/xlink" xmlns:svgjs="http://svgjs.com/svgjs" width="20" height="20" x="0" y="0" viewBox="0 0 64 64" style="enable-background:new 0 0 512 512" xml:space="preserve" class=""><defs><linearGradient id="a" x1="8.54" x2="55.46" y1="31.999" y2="31.999" gradientUnits="userSpaceOnUse"><stop offset="0" stop-color="#00c0ff"></stop><stop offset="1" stop-color="#5558ff"></stop></linearGradient></defs><g><linearGradient id="a" x1="8.54" x2="55.46" y1="31.999" y2="31.999" gradientUnits="userSpaceOnUse"><stop offset="0" stop-color="#00c0ff"></stop><stop offset="1" stop-color="#5558ff"></stop></linearGradient><path fill="url(&quot;#a&quot;)" d="M46.48 50.01a1.013 1.013 0 0 1-.45.84l-13.48 8.98A1.003 1.003 0 0 1 31 59v-3.51a23.463 23.463 0 0 1-15.66-39.96 1 1 0 1 1 1.42 1.41 21.309 21.309 0 0 0-5.75 10.61A21.513 21.513 0 0 0 31 44.5v-3.47a1.002 1.002 0 0 1 1.55-.83l13.48 8.98a1.008 1.008 0 0 1 .45.83zM33 8.51V5a1.002 1.002 0 0 0-1.55-.83l-13.48 8.98a1.007 1.007 0 0 0 0 1.67l13.48 8.98a1.002 1.002 0 0 0 1.55-.83V19.5a21.513 21.513 0 0 1 19.99 16.95 21.309 21.309 0 0 1-5.75 10.61 1 1 0 0 0 1.42 1.41A23.463 23.463 0 0 0 33 8.51z" data-original="url(#a)"></path></g></svg>