<svg xmlns="http://www.w3.org/2000/svg" version="1.1" xmlns:xlink="http://www.w3.org/1999/xlink" xmlns:svgjs="http://svgjs.com/svgjs" width="20" height="20" x="0" y="0" viewBox="0 0 256 256" style="enable-background:new 0 0 512 512" xml:space="preserve" class=""><g><path fill="#478CF7" d="M192.739 35.584H45.584c-5.523 0-10 4.477-10 10v164.831c0 5.523 4.477 10 10 10h164.831c5.523 0 10-4.477 10-10V63.261c0-1.879-.746-3.68-2.075-5.009l-20.593-20.593a7.082 7.082 0 0 0-5.008-2.075z" data-original="#478cf7" class=""></path><path fill="#377DE2" d="m218.341 58.252-10-10a7.085 7.085 0 0 1 2.075 5.009v147.155c0 5.523-4.477 10-10 10H35.584c0 5.523 4.477 10 10 10h164.831c5.523 0 10-4.477 10-10V63.261a7.081 7.081 0 0 0-2.074-5.009z" data-original="#377de2" class=""></path><path fill="#2266D3" d="M182.896 102.766H73.104a7.083 7.083 0 0 1-7.083-7.083V35.584H189.98v60.098a7.085 7.085 0 0 1-7.084 7.084z" data-original="#2266d3" class=""></path><path fill="#E6E7E8" d="M182.896 102.766H99.372a7.083 7.083 0 0 1-7.083-7.083V35.584h97.691v60.098a7.085 7.085 0 0 1-7.084 7.084z" data-original="#e6e7e8"></path><path fill="#D1D3D4" d="M184.979 35.584v55.098a7.083 7.083 0 0 1-7.083 7.083H94.372a7.073 7.073 0 0 1-1.841-.242 7.086 7.086 0 0 0 6.841 5.242h83.524a7.083 7.083 0 0 0 7.083-7.083V35.584z" data-original="#d1d3d4" class=""></path><path fill="#F1F2F2" d="M189.979 220.416v-83.759a6 6 0 0 0-6-6H72.021a6 6 0 0 0-6 6v83.759z" data-original="#f1f2f2"></path><path fill="#FFFFFF" d="M72.02 183.8c-1.1 0-2-.9-2-2v-45.14c0-.53.21-1.05.59-1.42.37-.37.89-.58 1.41-.58h54.86a2 2 0 1 1 0 4H74.02v43.14c0 1.1-.9 2-2 2zm62.86-45.14a2 2 0 1 1-.001-4.001 2 2 0 0 1 .001 4.001z" data-original="#ffffff"></path><path fill="#E6E7E8" d="M183.979 130.656h-4v79.759H66.021v10H189.98v-83.759a6.002 6.002 0 0 0-6.001-6z" data-original="#e6e7e8"></path><path fill="#D1D3D4" d="M184.908 130.728c.047.303.072.613.072.928v83.759H66.021v5H189.98v-83.759a6.002 6.002 0 0 0-5.072-5.928z" data-original="#d1d3d4" class=""></path><path fill="#377DE2" d="M174.927 90.591H160.76a3.542 3.542 0 0 1-3.542-3.542V48.312a3.542 3.542 0 0 1 3.542-3.542h14.167a3.542 3.542 0 0 1 3.542 3.542v38.737a3.542 3.542 0 0 1-3.542 3.542z" data-original="#377de2" class=""></path><path fill="#2266D3" d="M174.927 44.771h-1.458V82.05a3.542 3.542 0 0 1-3.542 3.542h-12.708v1.458a3.542 3.542 0 0 0 3.542 3.542h14.167a3.542 3.542 0 0 0 3.542-3.542V48.313a3.543 3.543 0 0 0-3.543-3.542zM58.052 202.818H46.32a1.771 1.771 0 0 1-1.771-1.771v-7.305c0-.978.793-1.771 1.771-1.771h11.732c.978 0 1.771.793 1.771 1.771v7.305c0 .978-.793 1.771-1.771 1.771zM209.68 202.818h-11.732a1.771 1.771 0 0 1-1.771-1.771v-7.305c0-.978.793-1.771 1.771-1.771h11.732c.978 0 1.771.793 1.771 1.771v7.305c0 .978-.793 1.771-1.771 1.771z" data-original="#2266d3" class=""></path></g></svg>