<svg xmlns="http://www.w3.org/2000/svg" version="1.1" xmlns:xlink="http://www.w3.org/1999/xlink" xmlns:svgjs="http://svgjs.com/svgjs" width="20" height="20" x="0" y="0" viewBox="0 0 64 64" style="enable-background:new 0 0 512 512" xml:space="preserve" class=""><g><g><path d="m35.256 12.427-11.842-11.841c-.781-.781-2.047-.781-2.828 0l-12 12c-.572.572-.743 1.432-.434 2.179.31.748 1.039 1.235 1.848 1.235h4v26c0 1.104.895 2 2 2h12c1.104 0 2-.896 2-2v-26h4c.008.001.016 0 .019 0 1.106 0 2-.896 2-2 .001-.638-.298-1.207-.763-1.573z" fill="#3D9AE2" data-original="#3d9ae2"></path><path d="m55.848 49.235c-.31-.748-1.039-1.235-1.848-1.235h-4l.001-26c0-.53-.211-1.039-.586-1.414s-.884-.586-1.414-.586h-12.001c-1.105 0-2 .896-2 2v26h-4c-.809 0-1.538.487-1.848 1.235-.309.747-.139 1.607.434 2.179l12 12c.391.391.902.586 1.414.586s1.023-.195 1.414-.586l12-12c.572-.572.743-1.432.434-2.179z" fill="#C4C8F5" data-original="#c4c8f5"></path></g></g></svg>